PathFileType	4	(X/Y/Z)	C:/Users/opensim2020/Desktop/walking_exp_matlab/subject06_walking15_straight_01.trc																																																																																																																																											
DataRate	CameraRate	NumFrames	NumMarkers	Units	OrigDataRate	OrigDataStartFrame	OrigNumFrames																																																																																																																																							
100	100	5	47	mm	100	979	232																																																																																																																																							
Frame#	Time	LFHD			RFHD			LBHD			RBHD			C7			T10			CLAV			STRN			RBAK			LSHO			LUPA			LELB			LFRM			LWRA			LWRB			LFIN			RSHO			RUPA			RELB			RFRM			RWRA			RWRB			RFIN			LASI			RASI			LPSI			RPSI			LTHI			LKNE			LTIB			LANK			LHEE			LTOE			RTHI			RKNE			RTIB			RANK			RHEE			RTOE			*39			*40			*41			*42			*43			*44			*45			*46		
		X1	Y1	Z1	X2	Y2	Z2	X3	Y3	Z3	X4	Y4	Z4	X5	Y5	Z5	X6	Y6	Z6	X7	Y7	Z7	X8	Y8	Z8	X9	Y9	Z9	X10	Y10	Z10	X11	Y11	Z11	X12	Y12	Z12	X13	Y13	Z13	X14	Y14	Z14	X15	Y15	Z15	X16	Y16	Z16	X17	Y17	Z17	X18	Y18	Z18	X19	Y19	Z19	X20	Y20	Z20	X21	Y21	Z21	X22	Y22	Z22	X23	Y23	Z23	X24	Y24	Z24	X25	Y25	Z25	X26	Y26	Z26	X27	Y27	Z27	X28	Y28	Z28	X29	Y29	Z29	X30	Y30	Z30	X31	Y31	Z31	X32	Y32	Z32	X33	Y33	Z33	X34	Y34	Z34	X35	Y35	Z35	X36	Y36	Z36	X37	Y37	Z37	X38	Y38	Z38	X39	Y39	Z39	X40	Y40	Z40	X41	Y41	Z41	X42	Y42	Z42	X43	Y43	Z43	X44	Y44	Z44	X45	Y45	Z45	X46	Y46	Z46	X47	Y47	Z47
																																																																																																																																														
204	2.03	841.68451	1652.20447	1328.52783	856.50513	1651.17419	1459.55066	712.0943	1590.99475	1345.6709	727.66797	1594.97803	1474.479	725.84735	1438.77734	1406.07935	702.04108	1109.85071	1433.72766	839.1886	1366.14636	1405.14832	885.53479	1193.55017	1406.95239	660.85724	1269.95447	1495.55298	774.2074	1388.32922	1244.29053	736.54309	1186.63501	1184.68835	708.16766	1077.39514	1182.51245	699.59399	927.37329	1162.48962	744.98694	803.5177	1195.01611	678.36255	810.14111	1171.20862	701.21539	722.26483	1166.29797	795.80328	1402.86438	1566.30298	775.94684	1207.54834	1664.85986	805.56854	1091.93689	1682.49207	876.46283	998.09857	1692.37	997.22858	920.23492	1643.00378	958.04865	889.15778	1686.97241	1031.22876	849.94794	1680.59973	885.16357	961.98889	1331.29102	879.48297	963.36438	1547.10815	723.81256	976.01941	1354.92212	728.17712	978.29742	1522.42969	882.86469	648.88422	1271.98828	928.1098	493.98074	1302.58057	930.89032	236.11784	1318.4198	951.38977	67.98175	1366.88269	913.88824	54.5205	1416.10645	1097.2843	43.3244	1366.99829	823.84418	617.69592	1606.71692	823.9707	489.54565	1592.91443	639.69067	298.24561	1572.13635	508.7211	169.64536	1523.33069	467.55283	180.98473	1476.5907	586.82538	39.00988	1513.91321	745.80414	1690.07813	1395.07629	NaN	NaN	NaN	NaN	NaN	NaN	NaN	NaN	NaN	NaN	NaN	NaN	NaN	NaN	NaN	NaN	NaN	NaN	NaN	NaN	NaN
205	2.04	851.86353	1652.90955	1326.8678	866.76727	1652.33838	1458.25208	722.20367	1592.08801	1343.87146	737.55463	1596.29785	1472.66089	735.70612	1439.70044	1404.5498	712.25122	1111.12659	1432.91602	849.32806	1367.38818	1404.04407	896.06689	1195.03772	1406.16199	670.94366	1271.17322	1494.29614	785.18475	1389.58899	1243.03906	749.27765	1187.65796	1183.08923	722.15485	1078.17395	1180.71436	714.79706	928.03943	1160.92737	761.07739	804.64008	1193.95642	694.78949	810.48163	1169.75781	718.3291	722.86804	1165.00488	805.34821	1404.51733	1564.80798	784.96423	1209.25574	1663.12805	814.02716	1093.19885	1680.15393	882.80664	997.49719	1691.01392	1001.67303	915.80804	1642.84363	960.96759	885.87488	1686.41052	1033.34985	844.76013	1681.20203	895.45514	963.81396	1329.83826	889.93231	964.55725	1545.62402	734.19525	977.64478	1354.35315	738.3783	978.82941	1521.75574	890.59747	649.71124	1271.01379	934.57031	494.21738	1301.42139	934.02771	236.30763	1318.07227	951.81732	67.99731	1367.19751	914.0838	54.60283	1416.21143	1097.90186	42.65446	1367.53503	839.48535	618.06714	1606.74121	842.3988	490.00775	1593.65991	657.0174	303.27032	1572.24475	522.76227	178.20326	1522.11975	482.703	191.73994	1475.22656	593.22711	42.9574	1513.18774	756.0929	1691.20471	1393.16064	NaN	NaN	NaN	NaN	NaN	NaN	NaN	NaN	NaN	NaN	NaN	NaN	NaN	NaN	NaN	NaN	NaN	NaN	NaN	NaN	NaN
206	2.05	862.11859	1653.68347	1325.1416	876.72778	1653.3949	1456.55884	732.20166	1593.05408	1342.1239	747.41418	1597.604	1470.9762	745.80316	1440.54761	1403.51843	722.54388	1112.30786	1431.97913	859.47803	1368.64771	1403.09558	906.54724	1196.40735	1405.37146	680.91211	1272.37122	1493.13745	796.01434	1390.83142	1241.91125	762.10999	1188.56763	1181.67664	735.77911	1079.02454	1178.81726	730.52356	928.76904	1159.3363	778.61133	806.49579	1191.58276	711.78595	810.99847	1167.80017	736.07764	723.48474	1163.62451	814.80231	1406.06494	1563.3905	793.98547	1210.8501	1661.52332	822.29407	1094.37659	1677.96106	888.79437	996.78137	1689.72424	1005.6413	911.22028	1642.95691	963.80511	882.82281	1686.40918	1034.88623	839.37708	1681.78284	905.52875	965.20129	1328.38354	900.09711	965.60248	1544.2699	744.37384	979.16156	1353.63013	748.48859	979.29468	1520.95496	897.88458	650.16223	1270.125	940.67987	494.1712	1300.80127	936.62543	236.26088	1318.11682	952.21539	68.06503	1367.50073	914.26849	54.74784	1416.39478	1098.37915	42.0733	1367.87036	854.66949	618.54675	1606.46045	860.5993	490.74915	1594.2522	674.75037	307.99738	1572.05127	537.45215	187.04102	1520.73572	498.43271	202.19254	1473.32336	601.31421	47.97066	1513.28406	766.21356	1692.25317	1391.23975	NaN	NaN	NaN	NaN	NaN	NaN	NaN	NaN	NaN	NaN	NaN	NaN	NaN	NaN	NaN	NaN	NaN	NaN	NaN	NaN	NaN
207	2.06	872.11957	1654.53735	1323.46326	886.5744	1654.65894	1454.91064	742.18903	1593.96436	1340.55481	757.27319	1599.00586	1469.38953	755.37897	1441.43713	1401.75818	732.38873	1113.42346	1431.02917	869.51111	1369.89148	1402.15796	916.88715	1197.74915	1404.69629	690.85364	1273.58801	1492.07141	806.64563	1392.0127	1240.7926	774.91791	1189.35608	1180.47363	749.73041	1079.61267	1177.18262	746.4455	929.22186	1157.64233	795.4538	807.50696	1190.74316	728.88446	811.20215	1166.06653	754.45416	724.06354	1162.20667	824.17841	1407.46252	1562.14758	803.12061	1212.27637	1660.16736	830.49164	1095.48535	1676.28357	894.41833	995.88995	1688.62012	1009.15247	906.43976	1643.02881	966.45343	879.82031	1686.61963	1035.93896	833.87109	1682.35596	915.37885	966.30896	1326.98352	909.9881	966.61389	1543.2124	754.46692	980.43402	1352.69617	757.52283	980.13898	1520.41809	904.90546	650.58673	1269.37244	945.75006	494.05402	1299.64624	938.53931	236.12102	1318.05298	952.49042	68.10851	1367.68604	914.45398	54.88383	1416.47314	1098.60913	41.48626	1367.88293	869.43341	619.216	1606.09546	878.87909	491.85455	1594.53516	692.5531	312.39932	1571.39319	552.61072	195.53366	1519.20813	515.12195	211.11676	1471.09314	611.54834	53.15703	1515.29773	776.1311	1693.35266	1389.27063	NaN	NaN	NaN	NaN	NaN	NaN	NaN	NaN	NaN	NaN	NaN	NaN	NaN	NaN	NaN	NaN	NaN	NaN	NaN	NaN	NaN
208	2.07	881.94794	1655.50818	1321.81653	896.3302	1656.12866	1453.2959	752.06006	1594.99817	1338.95398	766.98499	1600.45447	1467.8739	765.43146	1442.62097	1400.91248	742.47607	1114.60376	1429.92981	879.47418	1371.22864	1401.31055	927.04358	1199.06201	1403.94678	700.55743	1274.72961	1490.922	817.19434	1393.18433	1239.72217	787.62085	1190.15259	1178.88403	763.48889	1080.11072	1175.39746	762.60114	929.6684	1155.9989	812.75531	808.43213	1189.96143	746.46161	811.50348	1164.25098	773.7323	724.50568	1160.63953	833.59125	1408.77039	1561.16479	812.17542	1213.47131	1658.9989	838.12146	1096.15698	1674.70837	899.776	994.76318	1687.67932	1012.25787	901.5578	1643.0874	968.4165	876.53412	1686.62402	1036.46704	828.28113	1683.00366	924.90112	967.22894	1325.73706	919.77771	967.74774	1542.44324	764.18091	981.73004	1351.72363	767.28345	980.88348	1519.54382	911.8371	651.0603	1268.71082	950.55951	493.88031	1298.61426	940.04187	236.1582	1317.60901	952.72473	68.11514	1367.83044	914.534	55.02266	1416.52271	1098.7644	41.17358	1367.82227	883.76904	620.0976	1605.48804	896.78479	493.23889	1594.16968	710.6051	316.29388	1570.37488	568.71527	202.42633	1517.45886	532.31824	217.4998	1468.05457	624.80127	58.28047	1519.23413	785.91412	1694.56531	1387.44397	NaN	NaN	NaN	NaN	NaN	NaN	NaN	NaN	NaN	NaN	NaN	NaN	NaN	NaN	NaN	NaN	NaN	NaN	NaN	NaN	NaN
